<svg xmlns="http://www.w3.org/2000/svg" viewBox="0 0 680.48 138.51"><defs><style>.cls-1{fill:#fff;}</style></defs><g id="Layer_2" data-name="Layer 2"><g id="Layer_1-2" data-name="Layer 1"><path class="cls-1" d="M85.83,120.43a66.24,66.24,0,0,0-2.94-9.57c-1.09-2.83-2.26-4-3.93-4.2-1.49-.23-3.49.42-6.29,1.33C68,109.77,58,111.88,51.51,110.91c-13.39-2-20-13.47-18.31-25A20.55,20.55,0,0,1,43.63,71.15a24.87,24.87,0,0,1,4.24-1.21c6.47-1.21,16.55.52,21.25,2.13,2.83.8,4.86,1.38,6.33,1.1,1.67-.31,2.79-1.48,3.78-4.34a66.53,66.53,0,0,0,2.58-9.67,19.77,19.77,0,0,0,.25-5.79c-.35-1.85-1.36-3.19-4-4.8C73.72,46,67.45,44.25,60.65,43.51l-.09,0C31.55,39.14,4.75,55,.57,82.92c-2,13.21-1.34,47,45.71,54,12.83,1.93,28-.55,36.23-5.78,2.54-1.71,3.51-3.09,3.79-5A19.82,19.82,0,0,0,85.83,120.43Z"/><path class="cls-1" d="M162.08,46.38c12.43,5.82,26.6,25.83,26.6,46.32,0,29-26,44.75-50,44.75-32.72,0-53.59-16.36-53.59-46.63,0-30.84,27.26-51,53.21-51,4.14,0,6.3-.41,10.77,1C149.72,41.13,151.5,41.42,162.08,46.38ZM139.87,68a4.64,4.64,0,0,0-2.09-.21C125.53,69.55,116.47,79,116.47,92c0,11.09,9.4,17.49,20.31,17.49,10.34,0,21.62-6.4,21.62-17.49C158.4,74.34,152,72.08,139.87,68Z"/><path class="cls-1" d="M302.34,40.05c14.85,0,29.14,7.33,29.14,26.89a494.55,494.55,0,0,1-4.32,59.42c-.57,4.32-1.7,8.65-8.09,8.65a99.15,99.15,0,0,1-16.17-1.88c-4.33-.94-6-3.76-6-8.28,0-3,2.07-19.55,2.07-46.25,0-6-1.32-10-5.26-10-4.89,0-10.53,2.26-16.18,6.77.19,4.51.19,9.4.19,14.86,0,10.71-.19,24.44-.75,35-.19,6.39-2.07,9.4-8.27,9.4h-4.14a105.48,105.48,0,0,1-11.09-.37c-4.7-.57-6.77-3.95-7-9.22-.19-15.23.19-29.33-1.13-45.13-.38-5.82-1.88-9.4-5.45-9.4-5.27,0-10.34,2.82-14.67,6.4.19,16,.94,31.4,2.45,46.82a36.09,36.09,0,0,1,.37,4c0,4.32-1.88,6.58-10,6.95a61.91,61.91,0,0,1-6.21.19,58,58,0,0,1-6-.19c-7.71-.37-9.21-3.38-10-9.4a538.93,538.93,0,0,1-3.39-58.29c0-4.51,0-9.21.19-13.73.19-5.83.38-10,5.27-11.09,5.83-1.5,17.11-2.26,23.31-2.26,3.76,0,4.7,1.88,4.7,4.89,0,1.51-.18,3-.37,4.89,6-4.89,14.66-8.46,21.81-8.46,11.47,0,19.55,2.07,25.95,12.22C281.65,44.38,291.81,40.05,302.34,40.05Z"/><path class="cls-1" d="M446.46,40.05c14.85,0,29.14,7.33,29.14,26.89a492.47,492.47,0,0,1-4.32,59.42c-.57,4.32-1.7,8.65-8.09,8.65A99.15,99.15,0,0,1,447,133.13c-4.32-.94-6-3.76-6-8.28,0-3,2.07-19.55,2.07-46.25,0-6-1.31-10-5.26-10-4.89,0-10.53,2.26-16.17,6.77.18,4.51.18,9.4.18,14.86,0,10.71-.18,24.44-.75,35-.18,6.39-2.07,9.4-8.27,9.4h-4.14a105.48,105.48,0,0,1-11.09-.37c-4.7-.57-6.77-3.95-7-9.22-.19-15.23.19-29.33-1.13-45.13-.37-5.82-1.88-9.4-5.45-9.4-5.27,0-10.34,2.82-14.67,6.4.19,16,.94,31.4,2.45,46.82a33.77,33.77,0,0,1,.37,4c0,4.32-1.88,6.58-10,6.95a61.81,61.81,0,0,1-6.21.19,57.82,57.82,0,0,1-6-.19c-7.71-.37-9.22-3.38-10-9.4a538.94,538.94,0,0,1-3.38-58.29c0-4.51,0-9.21.18-13.73.19-5.83.38-10,5.27-11.09,5.83-1.5,17.11-2.26,23.31-2.26,3.76,0,4.71,1.88,4.71,4.89,0,1.51-.19,3-.38,4.89,6-4.89,14.66-8.46,21.81-8.46,11.47,0,19.56,2.07,25.95,12.22C425.77,44.38,435.93,40.05,446.46,40.05Z"/><path class="cls-1" d="M489.73.56A99.83,99.83,0,0,1,500.64,0c2.63,0,5.45,0,7.71.19,4.89.37,6,2.44,6,7.52,0,6.39-1.12,26.89-1.12,43.25,7.14-7.34,18.42-11.1,29-11.1,22.57,0,40.43,15.23,40.43,47.2,0,28-23.13,49.45-46.82,49.45-9,0-16.17-2.63-21.62-6.77-.76,2.64-2.82,3.95-7.15,4.52a126.51,126.51,0,0,1-14.67.75c-7.89,0-8.46-2.26-9-8.27A670.08,670.08,0,0,1,480,57.91c0-14.66.38-29.7,1.13-46.06C481.46,4.14,483.34,1.32,489.73.56ZM514,105.86a21.78,21.78,0,0,0,11.28,2.64c12.41,0,24.26-9.59,24.26-21.25,0-11.85-7.15-17.11-16.74-17.11A27.85,27.85,0,0,0,513.24,78C513.42,87.25,513.61,96.65,514,105.86Z"/><path class="cls-1" d="M618.43,101.28c5.07,5.83,13.53,9.4,22.18,9.4a62.42,62.42,0,0,0,23.51-5.45,11.94,11.94,0,0,1,4-1.32c1.88,0,2.82,1.51,3.76,4.14a59.88,59.88,0,0,1,2.07,8.27,14.41,14.41,0,0,1,.37,3.77,7.93,7.93,0,0,1-3,6.39c-7.52,7.14-22,12-38.92,12-24.63,0-47.2-18.8-47.2-47.19,0-28.77,23.32-48.89,49.08-48.89,34.79,0,46.26,28.95,46.26,42.68,0,3-.94,5.64-4.7,7.15C663.18,96.77,638.55,100.15,618.43,101.28Zm-3.58-19c11.29-.38,24.82-1.32,35.17-3.76a16.06,16.06,0,0,0-15.24-10.15A21.45,21.45,0,0,0,614.85,82.29Z"/></g></g></svg>