<svg width="36" height="36" viewBox="0 0 36 36" fill="none" xmlns="http://www.w3.org/2000/svg">
<path d="M36 18C36 27.941 27.941 36 18 36C8.06 36 0 27.941 0 18C0 8.06 8.06 0 18 0C27.941 0 36 8.06 36 18Z" fill="#FFCC4D"/>
<path d="M25.485 27.879C25.44 27.7 24.317 23.5 18 23.5C11.682 23.5 10.56 27.7 10.515 27.879C10.46 28.096 10.558 28.321 10.752 28.433C10.947 28.544 11.191 28.511 11.352 28.356C11.371 28.337 13.306 26.5 18 26.5C22.694 26.5 24.63 28.337 24.648 28.355C24.744 28.45 24.872 28.5 25 28.5C25.084 28.5 25.169 28.479 25.246 28.436C25.442 28.324 25.54 28.097 25.485 27.879ZM29.001 14C28.696 14 28.397 13.862 28.2 13.6C25.768 10.356 21.686 12.754 21.514 12.857C21.039 13.142 20.425 12.987 20.142 12.514C19.858 12.04 20.011 11.426 20.485 11.142C22.483 9.94301 26.999 8.66501 29.799 12.399C30.131 12.841 30.041 13.468 29.599 13.799C29.42 13.935 29.21 14 29.001 14ZM6.99901 14C6.79101 14 6.58001 13.935 6.40001 13.8C5.95801 13.469 5.86901 12.842 6.20001 12.4C9.00101 8.66601 13.517 9.94401 15.514 11.143C15.988 11.427 16.141 12.041 15.857 12.515C15.573 12.988 14.961 13.143 14.487 12.859C14.308 12.753 10.213 10.384 7.79901 13.601C7.60401 13.862 7.30301 14 6.99901 14ZM29 16C29 15.448 28.553 15 28 15H21C20.447 15 20 15.448 20 16C20 16.552 20.447 17 21 17H26.092C26.299 17.581 26.848 18 27.5 18C28.328 18 29 17.329 29 16.5C29 16.39 28.986 16.283 28.964 16.179C28.976 16.119 29 16.063 29 16ZM16 16C16 15.448 15.552 15 15 15H8.00001C7.44801 15 7.00001 15.448 7.00001 16C7.00001 16.552 7.44801 17 8.00001 17H13.092C13.299 17.581 13.848 18 14.5 18C15.328 18 16 17.329 16 16.5C16 16.39 15.986 16.283 15.964 16.179C15.975 16.119 16 16.063 16 16Z" fill="#664500"/>
</svg>
