<svg width="36" height="36" viewBox="0 0 36 36" fill="none" xmlns="http://www.w3.org/2000/svg">
<path d="M36 18C36 27.941 27.941 36 18 36C8.059 36 0 27.941 0 18C0 8.059 8.059 0 18 0C27.941 0 36 8.059 36 18Z" fill="#FFCC4D"/>
<path d="M20.001 13C19.946 13 19.892 12.996 19.836 12.986C19.291 12.895 18.923 12.38 19.014 11.835C19.407 9.471 21.584 5 27 5C27.553 5 28 5.448 28 6C28 6.552 27.553 7 27 7C21.905 7 21.021 11.954 20.986 12.165C20.905 12.653 20.481 13 20.001 13ZM15.999 13C15.52 13 15.097 12.655 15.014 12.167C14.977 11.957 14.059 7 9 7C8.448 7 8 6.552 8 6C8 5.448 8.448 5 9 5C14.416 5 16.592 9.471 16.986 11.835C17.077 12.38 16.709 12.895 16.164 12.986C16.109 12.996 16.053 13 15.999 13ZM11.41 17.892C9.075 17.892 7.54 16.895 7.446 16.832C6.987 16.526 6.863 15.905 7.169 15.445C7.475 14.985 8.095 14.86 8.556 15.168C8.655 15.232 11.158 16.804 14.554 15.106C15.049 14.859 15.649 15.06 15.896 15.553C16.143 16.047 15.943 16.648 15.449 16.895C13.954 17.641 12.581 17.892 11.41 17.892ZM24.591 17.892C23.419 17.892 22.046 17.641 20.553 16.894C20.059 16.647 19.859 16.046 20.106 15.552C20.354 15.058 20.954 14.858 21.448 15.105C24.848 16.805 27.347 15.231 27.452 15.164C27.912 14.866 28.533 14.994 28.834 15.453C29.136 15.912 29.013 16.527 28.556 16.832C28.46 16.895 26.925 17.892 24.591 17.892ZM26.001 27C25.696 27 25.397 26.862 25.2 26.6C25.175 26.566 22.418 23 18 23C13.583 23 10.826 26.566 10.798 26.603C10.465 27.041 9.837 27.128 9.398 26.797C8.958 26.465 8.869 25.841 9.2 25.4C9.335 25.22 12.562 21 18 21C23.438 21 26.665 25.221 26.8 25.4C27.132 25.841 27.042 26.468 26.6 26.799C26.42 26.935 26.21 27 26.001 27Z" fill="#664500"/>
<path d="M15.391 20.08C14.938 19.885 14.412 20.053 14.152 20.47L9.152 28.47C8.96 28.779 8.949 29.167 9.126 29.485C9.302 29.803 9.636 30 10 30H13C13.459 30 13.859 29.688 13.97 29.242L15.97 21.242C16.089 20.766 15.844 20.272 15.391 20.08ZM26.848 28.47L21.848 20.47C21.586 20.052 21.061 19.886 20.61 20.08C20.157 20.272 19.911 20.766 20.031 21.242L22.031 29.242C22.142 29.688 22.541 30 23 30H26C26.363 30 26.698 29.803 26.875 29.484C27.051 29.167 27.041 28.778 26.848 28.47Z" fill="#F5F8FA"/>
<path d="M31.982 30.178C31.985 30.118 32 30.061 32 30C32 28.344 30.656 27 29 27C27.973 27 27.068 27.518 26.527 28.305C26.057 28.11 25.541 28 25 28C22.791 28 21 29.791 21 32C21 34.209 22.791 36 25 36C26.365 36 27.568 35.313 28.29 34.269C28.77 35.289 29.798 36 31 36C32.657 36 34 34.657 34 33C34 31.688 33.154 30.586 31.982 30.178ZM11 28C10.458 28 9.944 28.11 9.473 28.305C8.932 27.518 8.027 27 7 27C5.344 27 4 28.344 4 30C4 30.061 4.014 30.118 4.018 30.178C2.846 30.586 2 31.688 2 33C2 34.657 3.343 36 5 36C6.202 36 7.231 35.289 7.709 34.269C8.432 35.313 9.634 36 11 36C13.209 36 15 34.209 15 32C15 29.791 13.209 28 11 28Z" fill="#E1E8ED"/>
</svg>
