<svg width="36" height="36" viewBox="0 0 36 36" fill="none" xmlns="http://www.w3.org/2000/svg">
<path d="M18 36C27.9411 36 36 27.9411 36 18C36 8.05887 27.9411 0 18 0C8.05887 0 0 8.05887 0 18C0 27.9411 8.05887 36 18 36Z" fill="#FFCC4D"/>
<path d="M6.999 17C6.849 17 6.696 16.966 6.553 16.895C6.059 16.648 5.859 16.047 6.106 15.553C6.158 15.448 7.424 13 11 13C14.577 13 15.842 15.449 15.894 15.553C16.141 16.047 15.94 16.648 15.447 16.895C14.956 17.142 14.362 16.944 14.111 16.459C14.067 16.378 13.28 15 11 15C8.683 15 7.901 16.433 7.894 16.447C7.719 16.798 7.366 17 6.999 17V17ZM29 17C29.15 17 29.303 16.966 29.446 16.895C29.94 16.648 30.14 16.047 29.893 15.553C29.841 15.448 28.575 13 24.999 13C21.422 13 20.157 15.449 20.105 15.553C19.858 16.047 20.059 16.648 20.552 16.895C21.043 17.142 21.637 16.944 21.888 16.459C21.932 16.378 22.719 15 24.999 15C27.316 15 28.098 16.433 28.105 16.447C28.28 16.798 28.633 17 29 17V17ZM29.503 23.52C29.826 22.771 29.964 22.263 29.969 22.243C30.103 21.709 29.779 21.168 29.244 21.033C28.708 20.897 28.167 21.221 28.029 21.756C27.955 22.051 26.081 29 18 29C9.919 29 8.045 22.051 7.97 21.755C7.832 21.221 7.291 20.897 6.755 21.032C6.221 21.167 5.897 21.708 6.03 22.242C6.052 22.33 8.331 31 18 31C19.65 31 21.07 30.734 22.315 30.315C26.645 28.857 28.689 25.405 29.503 23.52V23.52Z" fill="#664500"/>
<path d="M32.407 26.681L29.451 23.63C29.451 23.63 28.771 23.192 28.178 24.198C27.398 25.52 26.103 27.133 24.244 28.369C23.463 28.888 22.105 29.558 21.547 29.687C20.812 29.856 21.159 30.651 21.159 30.651C21.744 30.524 22.21 30.35 22.21 30.35L22.506 30.646L25.232 33.372C26.96 35.1 30.232 35.372 32.232 33.372C34.232 31.372 34.136 28.41 32.407 26.681V26.681Z" fill="#E75B70"/>
<path d="M29.915 31.074C30.128 30.861 30.128 30.516 29.915 30.303L26.286 26.674L25.49 27.422L29.143 31.075C29.356 31.287 29.702 31.287 29.915 31.074V31.074Z" fill="#DE3146"/>
</svg>
