<svg width="36" height="36" viewBox="0 0 36 36" fill="none" xmlns="http://www.w3.org/2000/svg">
<path d="M36 18C36 27.941 27.941 36 18 36C8.059 36 0 27.941 0 18C0 8.059 8.059 0 18 0C27.941 0 36 8.059 36 18Z" fill="#FFCC4D"/>
<path d="M18 21.849C15.034 21.849 13.065 21.503 10.631 21.03C10.074 20.924 8.99298 21.03 8.99298 22.668C8.99298 25.943 12.756 30.037 18 30.037C23.244 30.037 27.007 25.943 27.007 22.668C27.007 21.03 25.925 20.923 25.369 21.03C22.935 21.503 20.967 21.849 18 21.849Z" fill="#664500"/>
<path d="M16.65 3.281C15.791 0.850001 13.126 -0.425999 10.694 0.431001C9.21802 0.951001 8.17301 2.142 7.76601 3.535C6.57501 2.706 5.01501 2.435 3.54101 2.955C1.11101 3.813 -0.166985 6.48 0.692015 8.911C0.814015 9.255 0.976015 9.574 1.16401 9.869C3.11501 13.451 8.75202 15.969 12.165 16C14.802 13.833 17.611 8.335 16.883 4.323C16.845 3.975 16.77 3.625 16.65 3.281V3.281ZM19.35 3.281C20.209 0.850001 22.875 -0.425999 25.306 0.431001C26.782 0.951001 27.827 2.142 28.235 3.535C29.426 2.706 30.986 2.435 32.46 2.955C34.89 3.813 36.167 6.48 35.31 8.911C35.187 9.255 35.026 9.574 34.837 9.869C32.886 13.451 27.249 15.969 23.835 16C21.198 13.833 18.39 8.335 19.118 4.323C19.155 3.975 19.23 3.625 19.35 3.281V3.281Z" fill="#DD2E44"/>
</svg>
