<svg width="36" height="36" viewBox="0 0 36 36" fill="none" xmlns="http://www.w3.org/2000/svg">
<path d="M18 0C8.06 0 0 8.06 0 18C0 24.051 2.996 29.392 7.574 32.655C7.678 26.217 5.337 19 1.404 19C0.94 19 0.564 19.066 0.251 19.183C0.554 18.426 1.211 18 2.44 18C6.71 18 9.106 26.506 8.532 33.288C11.286 34.997 14.522 36 18 36C21.479 36 24.716 34.996 27.47 33.287C26.893 26.48 29.288 18 33.561 18C34.794 18 35.453 18.426 35.753 19.183C35.439 19.066 35.062 19 34.596 19C30.658 19 28.318 26.199 28.426 32.655C33.005 29.392 36 24.051 36 18C36 8.06 27.941 0 18 0Z" fill="#FFCC4D"/>
<path d="M18 0C8.06 0 0 8.06 0 18C0 19.192 0.123 20.356 0.344 21.484C0.578 20.621 0.944 19.793 1.402 19C0.939 19 0.564 19.066 0.252 19.183C0.516 18.524 1.074 18.135 2.02 18.041C5.012 13.862 11.037 11 18 11C24.964 11 30.988 13.861 33.98 18.04C34.93 18.134 35.49 18.522 35.752 19.183C35.44 19.066 35.063 19 34.599 19C35.057 19.793 35.422 20.621 35.657 21.484C35.878 20.356 36 19.192 36 18C36 8.06 27.941 0 18 0Z" fill="#BDDDF4"/>
<path d="M7.34701 11.91C6.40101 15.086 7.45401 18.203 9.70001 18.872C11.946 19.542 14.534 17.51 15.479 14.334C16.425 11.159 15.373 8.04101 13.128 7.37201C10.882 6.70301 8.29401 8.735 7.34701 11.91ZM28.652 11.91C29.598 15.086 28.545 18.203 26.3 18.872C24.054 19.542 21.466 17.51 20.521 14.334C19.575 11.159 20.628 8.04101 22.872 7.37201C25.117 6.70301 27.705 8.735 28.652 11.91Z" fill="#F5F8FA"/>
<path d="M18 18C15.243 18 13 20.243 13 23V29C13 31.757 15.243 34 18 34C20.757 34 23 31.757 23 29V23C23 20.243 20.757 18 18 18Z" fill="#664500"/>
<path d="M1.40401 19C0.940008 19 0.564008 19.066 0.251008 19.183C0.323008 19.004 0.418008 18.847 0.532008 18.707C-1.32999 20.998 2.84901 28.54 0.818008 36H7.27801C8.46801 29.04 6.04301 19 1.40401 19ZM35.753 19.183C35.439 19.066 35.062 19 34.596 19C29.955 19 27.531 29.002 28.723 36H35.183C33.277 28.955 36.839 21.911 35.753 19.183Z" fill="#FCAB40"/>
</svg>
