<svg width="36" height="36" viewBox="0 0 36 36" fill="none" xmlns="http://www.w3.org/2000/svg">
<path d="M36 18C36 27.941 27.941 36 18 36C8.06 36 0 27.941 0 18C0 8.06 8.06 0 18 0C27.941 0 36 8.06 36 18Z" fill="#FFCC4D"/>
<path d="M7.00099 15C6.67799 15 6.36099 14.844 6.16799 14.555C5.86199 14.095 5.98599 13.474 6.44499 13.168C6.57799 13.08 9.74599 11 14 11C14.552 11 15 11.448 15 12C15 12.552 14.552 13 14 13C10.345 13 7.58199 14.814 7.55499 14.832C7.38399 14.946 7.19099 15 7.00099 15ZM28.999 15C28.81 15 28.617 14.946 28.447 14.833C28.419 14.815 25.628 13 22 13C21.447 13 21 12.552 21 12C21 11.448 21.447 11 22 11C26.254 11 29.422 13.08 29.555 13.168C30.015 13.474 30.139 14.095 29.832 14.555C29.64 14.844 29.322 15 28.999 15Z" fill="#664500"/>
<path d="M27 22.091L36 18C36 17.34 35.959 16.691 35.891 16.05L27 20.091V19C27 17.896 26.104 17 25 17H11C9.896 17 9 17.896 9 19V20.091L0.11 16.05C0.041 16.691 0 17.34 0 18L9 22.091V26.637L1.547 25.282C1.888 26.052 2.288 26.789 2.73 27.497L9 28.637V30C9 31.104 9.896 32 11 32H25C26.104 32 27 31.104 27 30V28.637L33.271 27.496C33.712 26.788 34.112 26.051 34.453 25.281L27 26.637V22.091Z" fill="#F5F8FA"/>
</svg>
